<mxfile host="Electron" agent="Mozilla/5.0 (Windows NT 10.0; Win64; x64) AppleWebKit/537.36 (KHTML, like Gecko) draw.io/24.7.17 Chrome/128.0.6613.36 Electron/32.0.1 Safari/537.36" version="24.7.17">
  <diagram name="第 1 页" id="wJz072Y5yiNHRC675SkC">
    <mxGraphModel dx="2894" dy="1976" grid="1" gridSize="10" guides="1" tooltips="1" connect="1" arrows="1" fold="1" page="1" pageScale="1" pageWidth="827" pageHeight="1169" math="0" shadow="0">
      <root>
        <mxCell id="0" />
        <mxCell id="1" parent="0" />
        <mxCell id="7Wv-jyz2MAxnOiQlkz3S-3" value="" style="rounded=0;whiteSpace=wrap;html=1;fillColor=#647687;fontColor=#ffffff;strokeColor=#314354;" vertex="1" parent="1">
          <mxGeometry x="-160" y="-75" width="260" height="160" as="geometry" />
        </mxCell>
        <mxCell id="7Wv-jyz2MAxnOiQlkz3S-2" value="&lt;span style=&quot;color: rgb(184, 191, 198); font-family: Monaco, Consolas, &amp;quot;Andale Mono&amp;quot;, &amp;quot;DejaVu Sans Mono&amp;quot;, monospace; font-size: 21px; orphans: 4; text-align: left; white-space-collapse: preserve; background-color: rgba(0, 0, 0, 0.05);&quot;&gt;HandlerExecutionChain&lt;/span&gt;" style="text;html=1;align=center;verticalAlign=middle;whiteSpace=wrap;rounded=0;" vertex="1" parent="1">
          <mxGeometry x="-160" y="-75" width="260" height="30" as="geometry" />
        </mxCell>
        <mxCell id="7Wv-jyz2MAxnOiQlkz3S-5" value="" style="rounded=0;whiteSpace=wrap;html=1;fillColor=#1ba1e2;fontColor=#ffffff;strokeColor=#006EAF;" vertex="1" parent="1">
          <mxGeometry x="-110" y="-45" width="160" height="70" as="geometry" />
        </mxCell>
        <mxCell id="7Wv-jyz2MAxnOiQlkz3S-6" value="Handler" style="text;html=1;align=center;verticalAlign=middle;whiteSpace=wrap;rounded=0;fontSize=20;" vertex="1" parent="1">
          <mxGeometry x="-75" y="-30" width="90" height="40" as="geometry" />
        </mxCell>
        <mxCell id="7Wv-jyz2MAxnOiQlkz3S-8" value="Handler Interceptions" style="text;html=1;align=center;verticalAlign=middle;whiteSpace=wrap;rounded=0;fontSize=20;" vertex="1" parent="1">
          <mxGeometry x="-112.5" y="35" width="165" height="50" as="geometry" />
        </mxCell>
        <mxCell id="7Wv-jyz2MAxnOiQlkz3S-14" style="edgeStyle=orthogonalEdgeStyle;rounded=0;orthogonalLoop=1;jettySize=auto;html=1;exitX=0.5;exitY=0;exitDx=0;exitDy=0;entryX=0.5;entryY=1;entryDx=0;entryDy=0;" edge="1" parent="1" source="7Wv-jyz2MAxnOiQlkz3S-9" target="7Wv-jyz2MAxnOiQlkz3S-10">
          <mxGeometry relative="1" as="geometry" />
        </mxCell>
        <mxCell id="7Wv-jyz2MAxnOiQlkz3S-21" style="edgeStyle=orthogonalEdgeStyle;rounded=0;orthogonalLoop=1;jettySize=auto;html=1;entryX=0;entryY=0.5;entryDx=0;entryDy=0;" edge="1" parent="1" source="7Wv-jyz2MAxnOiQlkz3S-9" target="7Wv-jyz2MAxnOiQlkz3S-3">
          <mxGeometry relative="1" as="geometry">
            <Array as="points">
              <mxPoint x="-240" y="135" />
              <mxPoint x="-240" y="5" />
            </Array>
          </mxGeometry>
        </mxCell>
        <mxCell id="7Wv-jyz2MAxnOiQlkz3S-26" style="edgeStyle=orthogonalEdgeStyle;rounded=0;orthogonalLoop=1;jettySize=auto;html=1;exitX=0;exitY=0.75;exitDx=0;exitDy=0;entryX=1;entryY=0.75;entryDx=0;entryDy=0;" edge="1" parent="1" source="7Wv-jyz2MAxnOiQlkz3S-9" target="7Wv-jyz2MAxnOiQlkz3S-23">
          <mxGeometry relative="1" as="geometry">
            <mxPoint x="-780" y="330" as="targetPoint" />
          </mxGeometry>
        </mxCell>
        <mxCell id="7Wv-jyz2MAxnOiQlkz3S-27" value="创建" style="edgeLabel;html=1;align=center;verticalAlign=middle;resizable=0;points=[];fontSize=14;" vertex="1" connectable="0" parent="7Wv-jyz2MAxnOiQlkz3S-26">
          <mxGeometry x="0.1193" y="1" relative="1" as="geometry">
            <mxPoint as="offset" />
          </mxGeometry>
        </mxCell>
        <mxCell id="7Wv-jyz2MAxnOiQlkz3S-9" value="&lt;span style=&quot;color: rgb(184, 191, 198); font-family: Monaco, Consolas, &amp;quot;Andale Mono&amp;quot;, &amp;quot;DejaVu Sans Mono&amp;quot;, monospace; font-size: 21px; orphans: 4; text-align: left; white-space-collapse: preserve; background-color: rgba(0, 0, 0, 0.05);&quot;&gt;RequestMappingHandlerMapping&lt;/span&gt;" style="rounded=0;whiteSpace=wrap;html=1;fillColor=#60a917;fontColor=#ffffff;strokeColor=#2D7600;" vertex="1" parent="1">
          <mxGeometry x="-680" y="110" width="360" height="50" as="geometry" />
        </mxCell>
        <mxCell id="7Wv-jyz2MAxnOiQlkz3S-15" style="edgeStyle=orthogonalEdgeStyle;rounded=0;orthogonalLoop=1;jettySize=auto;html=1;entryX=0.5;entryY=1;entryDx=0;entryDy=0;dashed=1;" edge="1" parent="1" source="7Wv-jyz2MAxnOiQlkz3S-10" target="7Wv-jyz2MAxnOiQlkz3S-11">
          <mxGeometry relative="1" as="geometry" />
        </mxCell>
        <mxCell id="7Wv-jyz2MAxnOiQlkz3S-10" value="&lt;span style=&quot;color: rgb(184, 191, 198); font-family: Monaco, Consolas, &amp;quot;Andale Mono&amp;quot;, &amp;quot;DejaVu Sans Mono&amp;quot;, monospace; font-size: 21px; orphans: 4; text-align: left; white-space-collapse: preserve; background-color: rgba(0, 0, 0, 0.05);&quot;&gt;RequestMappingInfoHandlerMapping&lt;/span&gt;" style="rounded=0;whiteSpace=wrap;html=1;fillColor=#60a917;fontColor=#ffffff;strokeColor=#2D7600;" vertex="1" parent="1">
          <mxGeometry x="-680" y="-20" width="360" height="50" as="geometry" />
        </mxCell>
        <mxCell id="7Wv-jyz2MAxnOiQlkz3S-16" style="edgeStyle=orthogonalEdgeStyle;rounded=0;orthogonalLoop=1;jettySize=auto;html=1;entryX=0.5;entryY=1;entryDx=0;entryDy=0;" edge="1" parent="1" source="7Wv-jyz2MAxnOiQlkz3S-11" target="7Wv-jyz2MAxnOiQlkz3S-12">
          <mxGeometry relative="1" as="geometry" />
        </mxCell>
        <mxCell id="7Wv-jyz2MAxnOiQlkz3S-11" value="&lt;span style=&quot;color: rgb(184, 191, 198); font-family: Monaco, Consolas, &amp;quot;Andale Mono&amp;quot;, &amp;quot;DejaVu Sans Mono&amp;quot;, monospace; font-size: 21px; orphans: 4; text-align: left; white-space-collapse: preserve; background-color: rgba(0, 0, 0, 0.05);&quot;&gt;AbstractHandlerMapping&lt;/span&gt;" style="rounded=0;whiteSpace=wrap;html=1;fillColor=#60a917;fontColor=#ffffff;strokeColor=#2D7600;" vertex="1" parent="1">
          <mxGeometry x="-680" y="-150" width="360" height="50" as="geometry" />
        </mxCell>
        <mxCell id="7Wv-jyz2MAxnOiQlkz3S-12" value="&lt;span style=&quot;color: rgb(184, 191, 198); font-family: Monaco, Consolas, &amp;quot;Andale Mono&amp;quot;, &amp;quot;DejaVu Sans Mono&amp;quot;, monospace; font-size: 21px; orphans: 4; text-align: left; white-space-collapse: preserve; background-color: rgba(0, 0, 0, 0.05);&quot;&gt;HandlerMapping&lt;/span&gt;" style="rounded=0;whiteSpace=wrap;html=1;fillColor=#60a917;fontColor=#ffffff;strokeColor=#2D7600;" vertex="1" parent="1">
          <mxGeometry x="-680" y="-280" width="360" height="50" as="geometry" />
        </mxCell>
        <mxCell id="7Wv-jyz2MAxnOiQlkz3S-18" value="" style="rounded=0;whiteSpace=wrap;html=1;fillColor=#647687;fontColor=#ffffff;strokeColor=#314354;" vertex="1" parent="1">
          <mxGeometry x="-157.5" y="160" width="260" height="160" as="geometry" />
        </mxCell>
        <mxCell id="7Wv-jyz2MAxnOiQlkz3S-20" value="Request" style="text;html=1;align=center;verticalAlign=middle;whiteSpace=wrap;rounded=0;fontSize=20;" vertex="1" parent="1">
          <mxGeometry x="-72.5" y="220" width="90" height="40" as="geometry" />
        </mxCell>
        <mxCell id="7Wv-jyz2MAxnOiQlkz3S-22" style="edgeStyle=orthogonalEdgeStyle;rounded=0;orthogonalLoop=1;jettySize=auto;html=1;entryX=0.014;entryY=0.62;entryDx=0;entryDy=0;entryPerimeter=0;startArrow=classic;startFill=1;" edge="1" parent="1" source="7Wv-jyz2MAxnOiQlkz3S-9" target="7Wv-jyz2MAxnOiQlkz3S-18">
          <mxGeometry relative="1" as="geometry" />
        </mxCell>
        <mxCell id="7Wv-jyz2MAxnOiQlkz3S-24" style="edgeStyle=orthogonalEdgeStyle;rounded=0;orthogonalLoop=1;jettySize=auto;html=1;entryX=0;entryY=0.25;entryDx=0;entryDy=0;exitX=1.005;exitY=0.382;exitDx=0;exitDy=0;exitPerimeter=0;" edge="1" parent="1" source="7Wv-jyz2MAxnOiQlkz3S-23" target="7Wv-jyz2MAxnOiQlkz3S-9">
          <mxGeometry relative="1" as="geometry">
            <mxPoint x="-780" y="40" as="sourcePoint" />
            <mxPoint x="-730" y="240" as="targetPoint" />
            <Array as="points" />
          </mxGeometry>
        </mxCell>
        <mxCell id="7Wv-jyz2MAxnOiQlkz3S-25" value="修饰/定义" style="edgeLabel;html=1;align=center;verticalAlign=middle;resizable=0;points=[];fontSize=14;" vertex="1" connectable="0" parent="7Wv-jyz2MAxnOiQlkz3S-24">
          <mxGeometry x="-0.0479" y="1" relative="1" as="geometry">
            <mxPoint as="offset" />
          </mxGeometry>
        </mxCell>
        <mxCell id="7Wv-jyz2MAxnOiQlkz3S-23" value="&lt;font style=&quot;font-size: 20px;&quot;&gt;RequestMappingInfo&lt;/font&gt;" style="rounded=0;whiteSpace=wrap;html=1;fillColor=#fa6800;fontColor=#000000;strokeColor=#C73500;" vertex="1" parent="1">
          <mxGeometry x="-1030" y="103.13" width="190" height="63.75" as="geometry" />
        </mxCell>
      </root>
    </mxGraphModel>
  </diagram>
</mxfile>
